<?xml version="1.0"?>
<svg width="281.46" height="281.46" xmlns="http://www.w3.org/2000/svg" xmlns:svg="http://www.w3.org/2000/svg" xmlns:xlink="http://www.w3.org/1999/xlink" enable-background="new 0 0 256 256" version="1.1" xml:space="preserve">
 <style type="text/css">.st0{fill-rule:evenodd;clip-rule:evenodd;fill:#000000;}

	@keyframes rotate {
		from {
			transform: rotate(0deg);
			transform-origin: 50% 50%;
		}
		to {
			transform: rotate(360deg);
			transform-origin: 50% 50%;
		}
	}

	#Fill-1 {
	  animation-name: rotate;
		animation-duration: 6s;
		animation-iteration-count: infinite;
		animation-timing-function: linear;
	}
	#Fill-4 {
	  animation-name: rotate;
		animation-duration: 5s;
		animation-iteration-count: infinite;
		animation-timing-function: linear;
	}
	#Fill-6 {
	  animation-name: rotate;
		animation-duration: 4s;
		animation-iteration-count: infinite;
		animation-timing-function: linear;
	}</style>
 <defs>
  <symbol data-name="Layer 2" id="svg_3" viewBox="0 0 862.69 862.69" xmlns="http://www.w3.org/2000/svg">
   <defs>
    <style>.cls-1 {
        fill: #fefefd;
      }

      .cls-1, .cls-2, .cls-3 {
        stroke-width: 0px;
      }

      .cls-2 {
        fill: #040810;
      }

      .cls-3 {
        fill: #fbba01;
      }</style>
   </defs>
   <g data-name="Layer 1" id="svg_2">
    <path class="cls-3" d="m862.69,408.85l0,44.98c-0.31,1.92 -0.79,3.83 -0.92,5.76c-3.05,44.09 -12.11,86.83 -28.57,127.93c-53.76,-62.49 -107.53,-124.99 -161.29,-187.48c3.39,-15.21 -3.64,-28.95 -7.78,-42.48c-27.7,-90.46 -86.23,-150.44 -179.72,-170.85c-92.88,-20.28 -170.96,8.73 -234.27,78.82c-39.44,43.67 -53.82,96.83 -57.65,153.9c-53.08,52.34 -114.81,94.07 -172.51,140.74c-11.9,-34.46 -16.53,-70.28 -19.98,-106.33c0,-14.99 0,-29.99 0,-44.98c0.29,-1.26 0.73,-2.5 0.84,-3.77c14.99,-167.26 97.42,-288.89 247.46,-364.12c50.34,-25.24 104.66,-36.62 160.55,-40.97c14.99,0 29.99,0 44.98,0c1.26,0.29 2.5,0.73 3.77,0.84c167.25,14.99 288.88,97.42 364.11,247.46c25.24,50.34 36.61,104.66 40.97,160.55l0.01,0z"/>
    <path class="cls-3" d="m668.3,791.24c-63,42.4 -132.74,64.9 -208.2,70.5c-2.1,0.16 -4.17,0.62 -6.26,0.95l-44.98,0c-56.93,-4.41 -111.89,-16.77 -163.26,-42.26c-17.46,-8.66 -33.88,-19.42 -50.78,-29.21c157.83,0 315.66,0.02 473.49,0.03l-0.01,-0.01z"/>
    <path class="cls-2" d="m833.2,587.53c-9.98,20.51 -19.96,41.02 -29.95,61.53c-53.16,-2.43 -106.91,-0.23 -160.12,-0.2c-194.51,0.11 -389.03,0.04 -583.55,0.59c-17.12,-28.02 -30.22,-57.83 -39.6,-89.28c57.7,-46.67 119.43,-88.41 172.51,-140.75c10.52,-9.87 21.03,-19.75 31.55,-29.62c16.7,-15.25 34.57,-29.44 49.75,-46.07c15.03,-16.47 27.81,-22.36 42.66,-1.14c37.52,36.38 74.99,72.8 112.65,109.03c2.81,2.7 7.11,7.59 11.04,3.92c38.18,-35.6 76,-71.59 113.92,-107.47c4.08,-3.11 8.49,-5.86 12.18,-9.38q29.32,-27.89 55.67,3.47c3.52,4.18 7.3,8.15 10.95,12.22c13.02,15.22 26.03,30.44 39.04,45.66c53.76,62.49 107.53,124.99 161.29,187.48l0.01,0.01z"/>
    <path class="cls-1" d="m671.91,400.05c-13.02,-15.22 -26.03,-30.44 -39.04,-45.66c-0.29,-1.28 -0.48,-2.59 -0.88,-3.83c-40.91,-125.76 -198.41,-181.27 -310.45,-108.73c-53.78,34.82 -85.51,85.14 -97.49,147.98c-10.52,9.87 -21.03,19.75 -31.55,29.62c3.83,-57.06 18.2,-110.23 57.65,-153.89c63.31,-70.09 141.39,-99.1 234.27,-78.82c93.49,20.42 152.02,80.39 179.72,170.85c4.14,13.52 11.17,27.26 7.78,42.48l-0.01,0z"/>
    <path class="cls-2" d="m800.01,654.54c-2.56,4.12 -5.13,8.25 -7.7,12.37c-240.55,0.08 -481.1,0.16 -721.65,0.24c-2.62,-4.11 -5.25,-8.22 -7.87,-12.32c245.74,-0.1 491.47,-0.19 737.21,-0.29l0.01,0z"/>
    <path class="cls-2" d="m788.64,672.52c-2.51,3.52 -5.03,7.04 -7.55,10.56c-233.15,0.01 -466.31,0.03 -699.46,0.04c-2.45,-3.42 -4.9,-6.83 -7.35,-10.25c238.12,-0.12 476.23,-0.23 714.35,-0.35l0.01,0z"/>
    <path class="cls-2" d="m777.14,688.6c-2.52,3.32 -5.04,6.63 -7.56,9.95c-225.46,0.06 -450.93,0.12 -676.39,0.18c-2.6,-3.41 -5.19,-6.81 -7.79,-10.22c230.58,0.03 461.16,0.06 691.73,0.09l0.01,0z"/>
    <path class="cls-2" d="m764.48,704.85c-2.83,3.35 -5.66,6.69 -8.49,10.04c-216.47,-0.02 -432.95,-0.04 -649.42,-0.06c-2.79,-3.33 -5.57,-6.65 -8.36,-9.98c222.09,0 444.18,0 666.27,0z"/>
    <path class="cls-2" d="m749.74,721.84c-2.79,3 -5.59,6.01 -8.38,9.01c-6.99,-0.06 -13.98,-0.16 -20.97,-0.16c-199.68,0.05 -399.36,0.12 -599.04,0.18c-2.92,-3.14 -5.84,-6.28 -8.76,-9.42c212.38,0.13 424.77,0.26 637.15,0.39z"/>
    <path class="cls-3" d="m726.24,745.81c-3,2.86 -5.99,5.71 -8.99,8.57c-0.95,-0.21 -1.89,-0.62 -2.84,-0.62c-189.68,0.01 -379.35,0.05 -569.03,0.1c-3.12,-2.88 -6.24,-5.77 -9.36,-8.65c196.74,0.2 393.48,0.4 590.22,0.6z"/>
    <path class="cls-3" d="m121.35,730.87c199.68,-0.06 399.36,-0.13 599.04,-0.18c6.99,0 13.98,0.1 20.97,0.16c-2.7,2.87 -5.41,5.74 -8.11,8.6c-1.6,-0.24 -3.2,-0.68 -4.8,-0.68c-166.16,-0.06 -332.31,-0.14 -498.47,-0.09c-33.53,0 -67.05,0.48 -100.58,0.75c-2.69,-2.85 -5.37,-5.7 -8.06,-8.55l0.01,-0.01z"/>
    <path class="cls-3" d="m709.19,760.88c-3.32,2.72 -6.64,5.43 -9.95,8.15c-178.24,0.28 -356.48,0.57 -534.72,0.85c-3.66,-3 -7.32,-5.99 -10.98,-8.99c185.22,0 370.44,0 555.66,-0.01l-0.01,0z"/>
    <path class="cls-3" d="m749.74,721.84c-212.38,-0.13 -424.77,-0.26 -637.15,-0.39c-2.01,-2.21 -4.01,-4.41 -6.02,-6.62c216.47,0.02 432.95,0.04 649.42,0.06c-2.08,2.32 -4.17,4.63 -6.25,6.95z"/>
    <path class="cls-3" d="m689.27,776.78c-3.78,2.7 -7.56,5.39 -11.33,8.09c-162.91,0.29 -325.82,0.57 -488.73,0.89c-0.93,0 -1.86,0.45 -2.8,0.69c-4.33,-3.23 -8.66,-6.45 -12.99,-9.68c171.95,0 343.9,0 515.85,0l0,0.01z"/>
    <path class="cls-3" d="m800.01,654.54c-245.74,0.1 -491.47,0.19 -737.21,0.29c-1.07,-1.79 -2.14,-3.59 -3.22,-5.38c194.51,-0.55 389.03,-0.48 583.54,-0.59c53.22,-0.03 106.96,-2.23 160.12,0.2c-1.08,1.83 -2.16,3.65 -3.24,5.48l0.01,0z"/>
    <path class="cls-3" d="m764.48,704.85c-222.09,0 -444.18,0 -666.27,0c-1.67,-2.04 -3.34,-4.08 -5.02,-6.12c225.46,-0.06 450.93,-0.12 676.39,-0.18c-1.7,2.1 -3.4,4.2 -5.1,6.3z"/>
    <path class="cls-3" d="m788.64,672.52c-238.12,0.12 -476.23,0.23 -714.35,0.35c-1.21,-1.91 -2.41,-3.81 -3.62,-5.72c240.55,-0.08 481.1,-0.16 721.65,-0.24c-1.23,1.87 -2.45,3.74 -3.68,5.61z"/>
    <path class="cls-3" d="m777.14,688.6c-230.58,-0.03 -461.15,-0.06 -691.73,-0.09c-1.26,-1.8 -2.51,-3.59 -3.77,-5.38c233.15,-0.01 466.3,-0.03 699.46,-0.04c-1.32,1.84 -2.63,3.68 -3.95,5.51l-0.01,0z"/>
    <path class="cls-2" d="m709.19,760.88c-185.22,0 -370.44,0 -555.66,0.01c-2.72,-2.34 -5.43,-4.69 -8.15,-7.03c189.68,-0.04 379.35,-0.08 569.03,-0.1c0.95,0 1.89,0.4 2.84,0.62c-2.69,2.17 -5.37,4.33 -8.06,6.5z"/>
    <path class="cls-2" d="m129.41,739.42c33.53,-0.26 67.05,-0.74 100.58,-0.75c166.16,-0.05 332.31,0.03 498.47,0.09c1.6,0 3.2,0.45 4.8,0.68c-2.34,2.12 -4.68,4.24 -7.02,6.36c-196.74,-0.2 -393.48,-0.4 -590.22,-0.6c-2.21,-1.93 -4.41,-3.86 -6.61,-5.79l0,0.01z"/>
    <path class="cls-2" d="m689.27,776.78c-171.95,0 -343.9,0 -515.85,0c-2.97,-2.3 -5.94,-4.59 -8.9,-6.89c178.24,-0.28 356.48,-0.57 534.72,-0.85c-3.32,2.58 -6.64,5.17 -9.97,7.75l0,-0.01z"/>
    <path class="cls-2" d="m186.4,786.45c0.93,-0.24 1.86,-0.69 2.8,-0.69c162.91,-0.32 325.82,-0.6 488.73,-0.89c-3.21,2.13 -6.43,4.25 -9.64,6.38c-157.83,0 -315.65,-0.02 -473.48,-0.03c-2.8,-1.59 -5.61,-3.18 -8.41,-4.77z"/>
    <path class="cls-3" d="m224.04,389.8c11.98,-62.85 43.71,-113.16 97.49,-147.98c112.04,-72.55 269.54,-17.04 310.45,108.73c0.4,1.24 0.59,2.56 0.88,3.83c-3.66,-4.07 -7.43,-8.03 -10.95,-12.22q-26.41,-31.39 -55.67,-3.47c-3.69,3.51 -8.1,6.27 -12.18,9.38c-55,-84.59 -171.83,-87.28 -237.61,-5.48c-14.85,-21.22 -27.62,-15.32 -42.65,1.14c-15.19,16.63 -33.06,30.81 -49.75,46.07l-0.01,0z"/>
    <path class="cls-1" d="m316.45,342.59c65.78,-81.8 182.61,-79.11 237.61,5.48c-37.92,35.88 -75.74,71.87 -113.92,107.47c-3.94,3.67 -8.23,-1.22 -11.04,-3.92c-37.66,-36.22 -75.13,-72.65 -112.65,-109.03z"/>
   </g>
  </symbol>
 </defs>
 <title>solar-256</title>
 <desc>Created with Sketch.</desc>
 <g class="layer">
  <title>Layer 1</title>
  <use id="svg_4" transform="matrix(0.949172 0 0 0.949172 7.72779 7.72779)" x="-1.05" xlink:href="#svg_3" y="0"/>
 </g>
</svg>